<svg viewBox="90.5 158.87 675.73 136.63" fill="none" xmlns="http://www.w3.org/2000/svg">
  <path stroke-width="6" stroke-linecap="round" stroke-rule="evenodd" clip-rule="evenodd"
    stroke="url(#paint0_linear_3_1553)"
    d="m355,189c0,0 0,0 0,0c0,0 -0.04916,-0.18089 7,-2c25.83688,-6.66745 54.08264,-12.69446 62,-15c9.10849,-2.6524 12.27042,-7.37866 11,-8c-7.24246,-3.54216 -24.11697,-3.72455 -81,1c-44.13123,3.66542 -74.24164,9.9166 -90,14c-15.30588,3.96616 -23.41422,10.17157 -22,13c4.24265,8.48528 37.04779,5.34689 56,4c14.10657,-1.00252 18,-2 22,-3c0,0 -6.00101,-1.09995 -11,-1c-25.01498,0.50011 -80.96584,8.18376 -102,12c-57.91035,10.50671 -81.53823,12.86584 -93,19c-3.17892,1.70131 -6.6907,8.63075 3,13c28.49466,12.84737 105.95631,2.67856 207,0c148.96109,-3.94879 240,-1 319,1l53,3l25,1">
  </path>
  <path stroke-width="6" stroke-linecap="round" stroke-rule="evenodd" clip-rule="evenodd"
    stroke="url(#paint0_linear_3_1553)"
    d="m242,227c0,0 0,0 0,0c19,-3 46.90048,-6.9978 62,-8c8.98026,-0.59604 14,0 14,0c-15,4 -32.51608,-1.32965 -31,9c0.29044,1.97881 16.99506,-0.08305 50,-2c53.99228,-3.13589 70,-3 78,-3c4,0 4.37311,3.46599 6,5c5.54102,5.22466 27,5 66,6l35,0l10,-1">
  </path>
  <path stroke-width="6" stroke-linecap="round" stroke-rule="evenodd" clip-rule="evenodd"
    stroke="url(#paint0_linear_3_1553)"
    d="m613,167c0,0 0,0 0,0c-23,-2 -55.07227,-3.14983 -96,0c-19.04865,1.466 -56.3252,6.53339 -73,11c-11.30612,3.02852 -15.42169,7.29169 -8,9c40.9761,9.43179 108.41248,0.18945 172,9c10.10156,1.39964 5.09998,8.51183 -9,11c-114.34103,20.17735 -235,31 -366,51l-98,19l-38,12l-4,4">
  </path>
  <path stroke-width="6" stroke-linecap="round" stroke-rule="evenodd" clip-rule="evenodd"
    stroke="url(#paint0_linear_3_1553)"
    d="m551,224c0,0 0,0 0,0c0,0 0,0 0,0c6,0 16.03455,-0.64795 28,-2c7.02637,-0.79395 10,-2 9,-2c-5,0 -11.39459,-0.52368 -18,2c-3.3681,1.28683 -5.63397,4.22665 -5,5c3.23273,3.94328 22.07507,0.37668 28,-1c10.16937,-2.3629 18,-6 18,-6c0,0 -2.177,-0.65482 -7,1c-2.11505,0.72569 -3.70709,2.29289 -3,3c11.31372,11.31371 44.98444,-5.09425 81,-11c30.98682,-5.08113 63.07092,-10.64293 74,-13c8.06085,-1.73848 10.97986,-4.56711 3,-4c-21.15985,1.50378 -51.24823,7.87036 -81,15c-25.2467,6.05006 -34.94586,10.14859 -43,13c-2.98096,1.05536 -4,2 -1,2c7,0 16.94836,-2.27823 27,-4c6.96954,-1.19383 7,-1 7,-1c-3,1 -8.21167,2.71413 -11,5c-1.09369,0.89659 1.02014,1.56711 9,1c14.10657,-1.00252 27,-4 35,-5c0,0 -5.92767,1.23174 -12,3c-3.95868,1.15277 -3.99243,2.21266 -1,2c7.05328,-0.50127 20.92578,-3.49756 26,-4c1.9903,-0.19708 2.19434,0.44841 -2,2c-3.867,1.4305 -6,2 -7,3l1,0l5,0l13,-3">
  </path>
  <path stroke-width="6" stroke-linecap="round" stroke-rule="evenodd" clip-rule="evenodd"
    stroke="url(#paint0_linear_3_1553)" d="m738,219c0,0 0,0 0,0l1,-1l15,-3">
  </path>
  <defs>
    <linearGradient id="paint0_linear_3_1553" x1="480.205" y1="0" x2="480.205" y2="396.215"
      gradientUnits="userSpaceOnUse">
      <stop stop-color="#0096FF" />
      <stop offset="1" stop-color="#FF1E56" />
    </linearGradient>
  </defs>
</svg>